<svg xmlns="http://www.w3.org/2000/svg" width="1126" height="894" viewBox="0 0 1126 894" role="img" aria-labelledby="title desc">
<title id="title">Preview da interface do DevMatch</title>
<desc id="desc">Tela principal da plataforma DevMatch com área de contratação, shortlist técnica e métricas.</desc>
<rect width="1126" height="894" fill="#0f1115"/>
<rect x="10" y="6" width="1106" height="47" rx="13" fill="#1a1d22" stroke="#343941"/>
<rect x="21" y="16" width="30" height="27" rx="6" fill="#0e1013" stroke="#f3f1ec"/>
<rect x="28" y="22" width="14" height="14" rx="2" fill="none" stroke="#42d7e8" stroke-width="3"/>
<path d="M31 25h8l-4 8z" fill="#42d7e8"/>
<text x="59" y="26" fill="#fff" font-family="Arial, sans-serif" font-size="13" font-weight="700">DevMatch</text>
<text x="59" y="39" fill="#8fa2b8" font-family="Arial, sans-serif" font-size="10">Hiring workspace</text>
<g font-family="Arial, sans-serif" font-size="11" font-weight="700" fill="#fff">
<rect x="420" y="17" width="70" height="24" rx="12" fill="#272b31" stroke="#434950"/><text x="443" y="33">Feed</text>
<rect x="495" y="17" width="106" height="24" rx="12" fill="#272b31" stroke="#434950"/><text x="520" y="33">Contratante</text>
<rect x="606" y="17" width="60" height="24" rx="12" fill="#272b31" stroke="#434950"/><text x="628" y="33">Dev</text>
<rect x="671" y="17" width="69" height="24" rx="12" fill="#272b31" stroke="#434950"/><text x="695" y="33">Chat</text>
<rect x="1024" y="17" width="76" height="24" rx="12" fill="#111" stroke="#393939"/><text x="1038" y="33">Abrir feed</text>
</g>
<rect x="10" y="68" width="1106" height="815" rx="13" fill="#191c21" stroke="#343941"/>
<rect x="18" y="76" width="496" height="799" rx="9" fill="#f3f1ec"/>
<rect x="523" y="76" width="585" height="799" rx="9" fill="#20242a"/>
<rect x="45" y="104" width="96" height="23" rx="12" fill="#f7f5f0" stroke="#d7d3cb"/>
<rect x="58" y="110" width="13" height="13" rx="3" fill="#111"/><rect x="61" y="113" width="7" height="7" fill="none" stroke="#42d7e8" stroke-width="2"/>
<text x="78" y="120" fill="#111" font-family="Arial, sans-serif" font-size="10" font-weight="700">DevMatch</text>
<rect x="380" y="106" width="106" height="21" rx="11" fill="#111"/>
<text x="398" y="120" fill="#fff" font-family="Arial, sans-serif" font-size="10" font-weight="700">workspace ativo</text>
<text x="45" y="171" fill="#665f55" font-family="Arial, sans-serif" font-size="11" font-weight="700" letter-spacing="2">PLATAFORMA DE HIRING PARA TIMES TÉCNICOS</text>
<text x="45" y="223" fill="#111" font-family="Arial, sans-serif" font-size="48" font-weight="900">Um pipeline limpo</text>
<text x="45" y="269" fill="#111" font-family="Arial, sans-serif" font-size="48" font-weight="900">para avaliar devs</text>
<text x="45" y="315" fill="#111" font-family="Arial, sans-serif" font-size="48" font-weight="900">com contexto.</text>
<text x="45" y="347" fill="#4a4640" font-family="Arial, sans-serif" font-size="14">DevMatch separa contratante e dev, organiza sinais técnicos e leva o match</text>
<text x="45" y="370" fill="#4a4640" font-family="Arial, sans-serif" font-size="14">para uma conversa objetiva.</text>
<g font-family="Arial, sans-serif">
<rect x="45" y="404" width="442" height="93" rx="10" fill="#fbfaf7" stroke="#d7d3cb"/>
<rect x="59" y="429" width="39" height="39" rx="9" fill="#111"/><text x="71" y="454" fill="#fff" font-size="18">▣</text>
<text x="109" y="435" fill="#111" font-size="16" font-weight="700">Contratante</text><text x="109" y="458" fill="#4a4640" font-size="12">Revisar candidatos, montar shortlist e abrir</text><text x="109" y="476" fill="#4a4640" font-size="12">conversas.</text>
<rect x="362" y="434" width="112" height="31" rx="8" fill="#111"/><text x="378" y="454" fill="#fff" font-size="11" font-weight="700">Abrir pipeline →</text>
<rect x="45" y="506" width="442" height="91" rx="10" fill="#fbfaf7" stroke="#d7d3cb"/>
<rect x="59" y="531" width="39" height="39" rx="9" fill="#111"/><text x="70" y="556" fill="#fff" font-size="18">&lt;/&gt;</text>
<text x="109" y="537" fill="#111" font-size="16" font-weight="700">Dev</text><text x="109" y="560" fill="#4a4640" font-size="12">Gerenciar portfólio, stack, GitHub e conversas</text><text x="109" y="578" fill="#4a4640" font-size="12">abertas.</text>
<rect x="362" y="535" width="112" height="31" rx="8" fill="#111"/><text x="378" y="555" fill="#fff" font-size="11" font-weight="700">Abrir console →</text>
<rect x="45" y="607" width="442" height="34" rx="17" fill="#f7f5f0" stroke="#d7d3cb"/><text x="154" y="629" fill="#111" font-size="11" font-weight="700">▣  Ver feed de vagas e publicações  →</text>
<rect x="45" y="661" width="142" height="70" rx="9" fill="#fbfaf7" stroke="#d7d3cb"/><text x="59" y="692" fill="#111" font-size="22" font-weight="900">5</text><text x="59" y="713" fill="#665f55" font-size="10" font-weight="700" letter-spacing="1">CANDIDATOS</text>
<rect x="196" y="661" width="142" height="70" rx="9" fill="#fbfaf7" stroke="#d7d3cb"/><text x="210" y="692" fill="#111" font-size="22" font-weight="900">2</text><text x="210" y="713" fill="#665f55" font-size="10" font-weight="700" letter-spacing="1">MATCHES</text>
<rect x="347" y="661" width="140" height="70" rx="9" fill="#fbfaf7" stroke="#d7d3cb"/><text x="361" y="692" fill="#111" font-size="22" font-weight="900">1</text><text x="361" y="713" fill="#665f55" font-size="10" font-weight="700" letter-spacing="1">CONVERSA ATIVA</text>
</g>
<rect x="523" y="76" width="585" height="47" rx="9" fill="#20242a"/>
<line x1="523" y1="123" x2="1108" y2="123" stroke="#343941"/>
<text x="536" y="103" fill="#fff" font-family="Arial, sans-serif" font-size="13" font-weight="700">▣ Visão do workspace</text>
<text x="1040" y="103" fill="#bff6ff" font-family="Arial, sans-serif" font-size="11" font-weight="700">Abrir feed</text>
<rect x="532" y="133" width="329" height="732" rx="8" fill="#23272d" stroke="#3b4048"/>
<rect x="870" y="133" width="224" height="732" rx="8" fill="#23272d" stroke="#3b4048"/>
<text x="545" y="158" fill="#9bb0c6" font-family="Arial, sans-serif" font-size="10" font-weight="700" letter-spacing="2">PIPELINE</text>
<text x="545" y="184" fill="#fff" font-family="Arial, sans-serif" font-size="22" font-weight="900">Shortlist técnica</text>
<rect x="793" y="158" width="52" height="20" rx="10" fill="#42d7e8"/><text x="808" y="172" fill="#111" font-family="Arial, sans-serif" font-size="10" font-weight="700">pronto</text>
<rect x="545" y="201" width="302" height="33" rx="8" fill="#1b1f24" stroke="#3c424a"/><text x="558" y="222" fill="#93a6ba" font-family="Arial, sans-serif" font-size="11">⌕  Buscar candidato, stack ou projeto</text>
<g font-family="Arial, sans-serif" font-size="10" font-weight="700" fill="#e8edf2"><rect x="545" y="245" width="49" height="24" rx="12" fill="#343941"/><text x="557" y="261">React</text><rect x="602" y="245" width="55" height="24" rx="12" fill="#343941"/><text x="613" y="261">Next.js</text><rect x="665" y="245" width="55" height="24" rx="12" fill="#343941"/><text x="677" y="261">Sênior</text><rect x="728" y="245" width="56" height="24" rx="12" fill="#343941"/><text x="740" y="261">Remoto</text></g>
<g font-family="Arial, sans-serif">
<rect x="545" y="284" width="302" height="66" rx="8" fill="#2c3036" stroke="#474c54"/><circle cx="577" cy="317" r="22" fill="#6f8fa5"/><text x="611" y="313" fill="#fff" font-size="13" font-weight="700">Enzo Takeda</text><text x="611" y="331" fill="#6edff0" font-size="10">Full-stack TypeScript</text><text x="808" y="321" fill="#dffbff" font-size="11" font-weight="700">98%</text>
<rect x="545" y="360" width="302" height="66" rx="8" fill="#2c3036" stroke="#474c54"/><circle cx="577" cy="393" r="22" fill="#8c6e57"/><text x="611" y="389" fill="#fff" font-size="13" font-weight="700">Leo Martins</text><text x="611" y="407" fill="#93a6ba" font-size="10">Creative Developer</text><text x="808" y="397" fill="#dffbff" font-size="11" font-weight="700">98%</text>
<rect x="545" y="436" width="302" height="66" rx="8" fill="#2c3036" stroke="#474c54"/><circle cx="577" cy="469" r="22" fill="#d44855"/><text x="611" y="465" fill="#fff" font-size="13" font-weight="700">Maya Rocha</text><text x="611" y="483" fill="#93a6ba" font-size="10">Front-end Engineer</text><text x="808" y="473" fill="#dffbff" font-size="11" font-weight="700">97%</text>
</g>
<rect x="883" y="147" width="198" height="89" rx="9" fill="#f3f1ec"/>
<text x="897" y="170" fill="#111" font-family="Arial, sans-serif" font-size="12" font-weight="700">▣ Requisição ativa</text>
<text x="897" y="198" fill="#4a4640" font-family="Arial, sans-serif" font-size="11">Front-end SaaS, React, Next.js,</text><text x="897" y="216" fill="#4a4640" font-family="Arial, sans-serif" font-size="11">TypeScript e colaboração remota.</text>
<rect x="883" y="247" width="198" height="113" rx="9" fill="#2c3036" stroke="#474c54"/>
<text x="897" y="270" fill="#9bb0c6" font-family="Arial, sans-serif" font-size="10" font-weight="700" letter-spacing="1">CANDIDATO EM FOCO</text><circle cx="918" cy="306" r="19" fill="#6f8fa5"/><text x="946" y="300" fill="#fff" font-family="Arial, sans-serif" font-size="12" font-weight="700">Enzo Takeda</text><text x="946" y="317" fill="#6edff0" font-family="Arial, sans-serif" font-size="10">Full-stack TypeScript</text><text x="897" y="341" fill="#9bb0c6" font-family="Arial, sans-serif" font-size="10">4 stacks batem com a vaga.</text>
<g font-family="Arial, sans-serif"><rect x="883" y="371" width="198" height="69" rx="9" fill="#2c3036" stroke="#474c54"/><circle cx="901" cy="406" r="10" fill="#48515c"/><text x="898" y="410" fill="#bff6ff" font-size="10" font-weight="700">1</text><text x="920" y="393" fill="#fff" font-size="12" font-weight="700">Entrada por papel</text><text x="920" y="411" fill="#9bb0c6" font-size="9">Cada conta acessa somente o</text><text x="920" y="425" fill="#9bb0c6" font-size="9">workspace correto.</text>
<rect x="883" y="447" width="198" height="69" rx="9" fill="#2c3036" stroke="#474c54"/><circle cx="901" cy="482" r="10" fill="#48515c"/><text x="898" y="486" fill="#bff6ff" font-size="10" font-weight="700">2</text><text x="920" y="469" fill="#fff" font-size="12" font-weight="700">Triagem objetiva</text><text x="920" y="487" fill="#9bb0c6" font-size="9">Stack, projeto, senioridade e</text><text x="920" y="501" fill="#9bb0c6" font-size="9">aderência ficam juntos.</text>
<rect x="883" y="523" width="198" height="69" rx="9" fill="#2c3036" stroke="#474c54"/><circle cx="901" cy="558" r="10" fill="#48515c"/><text x="898" y="562" fill="#bff6ff" font-size="10" font-weight="700">3</text><text x="920" y="545" fill="#fff" font-size="12" font-weight="700">Conversa registrada</text><text x="920" y="563" fill="#9bb0c6" font-size="9">A conversa nasce do match e</text><text x="920" y="577" fill="#9bb0c6" font-size="9">mantém o contexto.</text></g>
<rect x="883" y="600" width="198" height="53" rx="9" fill="#2c3036" stroke="#474c54"/><rect x="894" y="611" width="31" height="31" rx="7" fill="#42d7e8"/><text x="903" y="632" fill="#111" font-family="Arial, sans-serif" font-size="17">▣</text><text x="935" y="621" fill="#fff" font-family="Arial, sans-serif" font-size="12" font-weight="700">Feed da rede</text><text x="935" y="638" fill="#9bb0c6" font-family="Arial, sans-serif" font-size="9">Vagas, posts, links e portfólio</text>
</svg>